<svg xmlns="http://www.w3.org/2000/svg" xmlns:xlink="http://www.w3.org/1999/xlink" fill="none" height="441" viewBox="0 0 930 441" width="930"><clipPath id="a"><path d="m0 0h930v441h-930z"></path></clipPath><g clip-path="url(#a)" stroke="#c1c1c1" stroke-linecap="round" stroke-linejoin="round"><path d="m784.694 106.183c-.444 3.326-1.044 6.642-1.291 9.983-.286 3.869-.358 7.76-.36 11.641-.021 53.231-.02 106.461.001 159.692.01 13.64.311 27.28.28 40.92-.018 8.54-.307 17.083-.682 25.615-.13 2.939-1.967 4.819-3.94 4.636-2.747-.253-3.437-2.461-3.965-4.641-.115-.881-.126-1.771-.033-2.654.111-20.072.188-40.145.341-60.217.186-24.286.506-48.572.641-72.859.18-32.492.281-64.985.303-97.478.002-5.323-.544-10.653-1.008-15.964-.107-1.222-.922-2.382-1.638-4.123-2.688 3.324-2.755 6.663-3.265 9.78-1.868 11.407-3.503 22.852-5.387 34.257-2.237 13.545-4.653 27.06-6.967 40.592-2.238 13.083-4.458 26.169-6.662 39.258-2.118 12.529-4.172 25.07-6.343 37.591-2.385 13.761-4.882 27.503-7.309 41.256-1.466 8.314-2.732 16.666-4.371 24.944-2.291 11.563-4.709 23.106-7.374 34.587-.776 3.345-2.464 6.506-3.946 9.651-.576 1.183-1.469 2.182-2.58 2.886-1.112.704-2.398 1.086-3.713 1.101-6.989.511-13.98 1.106-20.98 1.307-10.207.292-20.432.569-30.634.292-9.779-.265-19.549-1.133-29.301-1.978-2.864-.248-5.656-1.322-8.756-2.084 1.633-3.084 4.252-2.874 6.425-3.481 1.968-.549 3.988-.918 5.988-1.351 4.192-.906 5.384-2.272 5.67-6.322.291-4.106.604-8.212 1.003-12.309.493-5.059 3.908-7.718 8.332-8.911 5.833-1.573 8.784-4.858 9.043-11.049.394-9.437 1.114-18.869 1.975-28.277.642-7.009 1.77-13.972 2.599-20.966.431-3.648.544-7.336 1.043-10.973 1.25-9.105 2.544-18.205 3.992-27.281 2.019-12.656 4.259-25.277 6.287-37.933 2.077-12.962 4.118-25.932 5.972-38.927 1.104-7.732 2.264-15.504 2.544-23.289.027-5.154-.622-10.29-1.932-15.276-1.786-7.636-7.957-10.625-14.909-11.907-4.511-.705-9.071-1.058-13.637-1.057-15.983-.417-31.967-.755-47.954-1.014-18.204-.292-36.411-.678-54.613-.569-6.874.028-13.713.969-20.338 2.8-9.966 2.77-13.291 9.797-11.585 19.036 1.667 9.023 3.817 17.956 5.582 26.963 1.296 5.933 2.274 11.93 2.932 17.967.758 7.288.97 14.622.634 21.941-.711 11.188-3.135 21.922-12.506 29.641-3.847 3.218-8.662 5.055-13.676 5.217-12.979.468-25.972.569-38.96.732-7.325.091-14.673-.328-21.973.112-7.359.444-10.421 3.829-10.65 10.883-.273 8.38-.15 9.99 9.98 10.247 6.191.156 12.345.17 18.306 2.085.495.254.947.583 1.34.975"></path><path d="m473.992 264.21c2.442-.111 4.941-.606 7.314-.253 4.924.733 9.782 1.907 14.662 2.925.684.162 1.353.383 1.998.662 1.214.489 2.809.577 2.358 2.66-.478 2.2-2.19 2.294-3.673 1.932-4.812-1.174-9.558-2.612-14.335-3.931-5.364-1.481-9.969-5.194-15.655-5.594-3.417-.24-6.88.29-10.319.242-8.736-.23-17.464.702-25.955 2.769-3.236.829-6.261 2.528-9.339 3.925-3.572 1.621-4.367 4.746-4.344 8.303.034 5.101-.121 10.207.047 15.303.153 4.663.646 9.315.957 13.974.569 8.538.868 17.103 1.731 25.611 1.072 10.561 2.475 21.096 4.052 31.594.281 1.868.108 5.042 3.545 4.986 1.542-.117 2.991-.784 4.081-1.88s1.748-2.548 1.854-4.089c.152-3.426-.261-6.874-.236-10.31-.117-2.012.127-4.028.72-5.953 1.123-2.843 4.963-4.608 8.216-3.637 12.016 3.589 23.974 7.399 34.644 14.258 5.295 3.404 7.403 8.432 7.742 14.623.349 5.686 1.016 11.348 1.996 16.959.607 3.606 2.783 5.1 5.921 5.003 4.152-.128 6.101-1.462 6.594-5.332.519-4.065.352-8.214.766-12.297.805-7.92 3.936-14.642 11.673-17.848 3.59-1.487 7.703-1.771 11.608-2.431 9.536-1.611 19.062-3.328 28.644-4.621 10.067-1.358 20.181-2.427 30.301-3.333 7.748-.693 15.532-1.104 23.308-1.312 4.083-.109 8.316.026 11.972 2.285 4.555 2.816 6.477 7.419 8.051 12.271.775 1.937 1.681 3.819 2.709 5.635 4.247-2.659 3.395-6.244 3.133-9.271-.32-3.699-1.461-7.325-2.219-10.989-1.112-5.379-4.531-9.22-13.657-9.64-9.145-.42-18.038 1.446-26.978 2.966-13.529 2.3-27.049 4.693-40.638 6.578-7.176.899-14.401 1.345-21.633 1.338-5.229.062-8.002-2.602-9.327-7.561-3.998-14.962-4.633-30.258-3.881-45.574.512-10.411 1.577-20.855 4.59-30.934.843-2.869 1.963-5.649 3.345-8.3.875-1.72 2.14-3.211 3.695-4.355 1.554-1.144 3.355-1.91 5.258-2.235 6.603-1.113 13.327-2.43 19.959-2.238 9.924.414 19.817 1.38 29.632 2.894 10.709 1.517 21.336 3.627 31.978 5.592 8.045 1.485 16.141 2.689 24.312 2.538 4.385-.138 8.738-.808 12.961-1.997 1.922-.445 3.633-1.537 4.844-3.093 1.212-1.557 1.85-3.482 1.807-5.453.083-3.1-.185-6.21-.295-9.315"></path><path d="m782.5 94.5c10 0 22.999-.9938 27.492-1.6998 7.787-1.2238 15.58-2.4814 22.977-5.2806.924-.2624 1.731-.8291 2.291-1.6081.561-.7789.841-1.7243.795-2.6825.235-7.5474 1.023-15.0791 1.207-22.6264.293-11.9724.368-23.9529.33-35.9292-.013-4.326-.632-8.6489-.94-12.9757.005-.8656-.291-1.70605-.838-2.37735-.547-.67131-1.311-1.13175-2.161-1.30246-13.03-3.77407-26.423-6.16284-39.955-7.1266-14.223-1.074257-28.273-.088658-42.289 1.62385-7.529.91986-14.877 3.26197-22.335 4.82423-2.877.6025-3.923 2.37447-3.984 5.02443-.344 14.9708-.881 29.9416-.909 44.9132-.012 6.6528 1.031 13.3061 1.561 19.962.189 2.3762 1.011 3.1926 3.686 2.7444 8.62-1.4444 17.268-3.0481 25.969-3.6136 11.511-.7481 23.08-.6565 34.626-.7529 4.447-.0245 8.893.1969 13.316.6632 9.282.9541 18.653 1.592 27.358 5.3896.093.3142.186.6284.278.9426-1.733.8466-3.513 1.597-5.329 2.2474-7.684 2.3026-15.621 3.6586-23.634 4.0377-5 .2517-9.991.6503-14.987.983"></path><path d="m362.764 287.166c3.33.998 6.631 2.112 9.998 2.964 3.89.985 7.514 2.815 10.615 5.36-3.627 3.969-8.21 5.857-12.963 7.28-10.557 3.161-21.371 3.201-32.297 2.808-7.091-.187-13.957-2.53-19.68-6.718-.964-.69-2.752-1.321-3.529-.878-.777.444-1.184 2.326-1.03 3.481 1.212 9.109 2.447 18.221 3.977 27.281 1.205 7.138 2.83 14.205 4.287 21.299.41 2.003.885 3.993 1.326 5.99.591 2.682 2.89 3.76 5.015 4.239 9.298 2.096 18.671 4.199 28.274 2.348 2.969-.572 5.75-2.06 8.69-2.861 1.108-.302 2.423.155 3.645.266-.333 1.22-.277 2.87-1.068 3.585-3.251 2.94-7.359 4.363-11.598 4.992-3.856.544-7.75.777-11.644.698-16.861-.13-33.696 1.354-50.274 4.431-13.382 2.393-26.701 5.316-39.282 10.642-8.235 3.486-16.721 6.625-23.681 12.567-.129.11-4.045 3.06-5.045 9.56"></path><path d="m255.201 405.271c.87 5.341 4.982 7.67 9.356 9.226 5.426 1.952 10.984 3.518 16.631 4.686 24.639 4.989 49.639 4.804 74.58 4.242 13.672-.307 27.347-1.756 40.949-3.317 6.859-.787 13.567-2.931 20.32-4.562 1.188-.372 2.311-.925 3.33-1.639 4.141-2.556 4.114-4.626.013-7.311-5.177-3.389-11.082-4.7-16.99-5.972-12.838-2.766-25.872-3.408-38.959-3.715-12.229-.287-24.446-.816-36.633.708-.111.008-.222.009-.333.002-1.724-.013-3.609.442-3.48 2.316.066.959 1.937 2.361 3.164 2.575 5.176.901 10.422 1.393 15.633 2.106 5.335.729 10.678 1.43 15.974 2.388 1.547.279 2.943 1.393 4.409 2.124.048.298.096.597.143.895-1.513.412-3.035 1.208-4.538 1.173-8.551-.202-17.118-.331-25.639-.999-12.341-.968-24.637-2.509-36.973-3.549-8.194-.69-16.407-1.133-24.641-1.327-8.875-.223-17.776-.39-26.636.036-10.896.525-21.766 1.626-32.637 2.597-7.448.664-14.891 1.419-22.31 2.34-6.791.843-13.541 2.003-20.319 2.952-10.541 1.477-21.082 2.958-31.638 4.316-10.979 1.412-21.968 2.741-32.969 3.987-6.9789.79-13.9942 1.259-20.9749 2.038-20.9309 2.334-41.9417 2.044-62.9416 1.931-6.8839-.037-13.76486-.618-20.647164-.951"></path><path d="m655.484 234.933c-.777-3.992-1.507-7.994-2.34-11.975-1.857-8.878-3.708-17.757-5.667-26.613-2.04-9.22-4.311-18.39-6.281-27.624-1.814-8.507-3.877-17.012-4.862-25.629-.78-6.818-.73-13.991 5.169-19.272 3.789-3.391 8.526-3.967 13.316-4.322.773-.057 1.554-.008 2.331-.008 5.301 0 7.817 1.385 8.888 6.343 1.533 6.557 2.525 13.228 2.966 19.946.433 8.976.33 17.97-.309 26.933-.751 10.458-2.056 20.899-3.643 31.268-1.215 7.942-2.977 15.828-4.975 23.616-2.259 8.806-8.226 13.845-17.245 15.334-14.39 2.376-28.828 1.933-43.296 1.02-5.093-.322-10.216-.145-15.316-.389-12.546-.598-25.081-1.518-37.634-1.902-8.652-.413-17.322-.271-25.957.424-8.295.813-11.239 3.686-12.604 11.16-.614 3.367-.444 6.87-.744 10.301-.907 10.366-1.224 20.809-3.977 30.943-1.523 5.602-3.957 10.668-8.334 14.635-5.408 4.9-12.011 4.948-18.643 4.281-8.012-.807-16.003-1.854-23.977-2.981-5.906-.835-11.947-1.387-17.611-3.105-7.491-2.272-8.752-5.416-9.291-14.5-.235-3.965.372-7.98.584-11.973.036-.667.005-1.338.005-2.101-2.275-.615-2.879.772-3.688 2.086-1.466 2.383-3.083 4.673-4.637 7.002"></path><path d="m357.103 272.195c.444-6.876.773-13.761 1.361-20.624.771-8.993 1.854-17.959 2.602-26.954.608-7.305.971-14.633 1.355-21.955.703-13.416 1.568-26.83 1.937-40.257.297-10.799.155-21.63-2.28-32.264-.059-.259-.424-.448-1.07-1.094-.595.874-1.114 1.798-1.55 2.761-3.429 9.811-4.777 20.07-6.315 30.272-1.284 8.513-2.395 17.051-3.333 25.615-1.035 9.299-1.981 18.615-2.654 27.946-.846 11.742-1.375 23.507-2.041 35.262"></path><path d="m782.363 94.5385c-3.552-.1109-7.162.1267-10.638-.445-2.688-.4421-3.493.4995-4.041 2.7675-1.477 6.118-3.35 12.151-4.586 18.314-3.909 19.491-7.645 39.017-11.356 58.547-2.419 12.736-4.695 25.5-7.006 38.257-3.234 17.851-6.51 35.696-9.638 53.566-2.228 12.732-4.219 25.506-6.359 38.254-1.286 7.66-2.655 15.305-3.988 22.957"></path><path d="m226.561 406.934c-.302 3.337 1.24 5.93 3.328 8.32 5.818 6.658 13.632 10.086 21.668 12.917 14.428 4.934 29.41 8.076 44.606 9.355 7.984.753 15.973 1.539 23.978 1.963 10.091.534 20.198.834 30.302 1.021 18.505.234 36.995-1.121 55.267-4.052 15.685-2.42 31.26-5.655 45.93-11.981 4.03-1.738 7.588-4.568 11.362-6.897"></path><path d="m720.089 375.994c5.953 8.397 14.467 13.371 23.662 17.259 11.424 4.831 23.383 8.289 35.624 10.302 13.504 2.226 27.037 4.39 40.631 5.931 10.706 1.213 21.516 1.611 32.292 2.061 12.536.524 25.079.859 37.629 1.006 12.986.167 25.975.039 38.963.023.222 0 .444-.208.666-.319"></path><path d="m453.678 397.619c-7.886-5.201-16.607-8.465-25.644-10.973-11.786-3.132-23.813-5.276-35.955-6.41-14.6-1.569-29.286-2.186-43.965-1.85-16.65.489-33.236 2.266-49.611 5.316-10.6 1.93-21.128 4.353-30.967 8.956-4.761 2.228-9.446 4.702-11.644 9.962-.213.755-.334 1.534-.358 2.318"></path><path d="m785.693 101.525c1.955-1.164 2.458.196 3.009 1.659 1.633 4.337 3.674 8.555 4.922 12.997 5.252 18.7 10.439 37.422 15.334 56.219 4.982 19.131 9.644 38.345 14.349 57.547 3.527 14.396 6.897 28.83 10.341 43.246 2.994 12.532 6.06 25.047 8.973 37.598 3.187 13.733 6.211 27.503 9.351 41.247 1.726 7.553 3.505 15.093 5.338 22.621.782 3.206.068 4.896-2.683 5.66-2.198.611-4.345-.708-4.973-3.332-2.276-9.524-4.459-19.07-6.683-28.606-5.326-22.845-10.651-45.691-15.973-68.537-3.386-14.625-6.613-29.287-10.017-43.909-3.593-15.431-7.346-30.824-10.963-46.25-3.379-14.405-6.593-28.849-10.025-43.241-2.995-12.559-5.948-25.137-9.427-37.565-1.302-4.65-1.576-9.5437-3.537-14.0079"></path><path d="m356.437 286.168c6.55-12.532 13.17-25.026 19.626-37.606 5.434-10.508 9.761-21.551 12.912-32.951 1.008-3.69.868-7.692 1.253-11.552l-1.48-.509c-1.446 2.255-3.055 4.423-4.311 6.779-7.773 14.586-13.809 29.945-20.013 45.229-1.627 4.008-3.288 8.003-5.021 11.965-.452.741-1.001 1.417-1.634 2.01"></path><path d="m416.38 294.152c-1.665 4.436-3.596 8.793-4.944 13.323-3.601 12.107-5.74 24.681-11.128 36.208-1.723 3.896-4.097 7.471-7.021 10.572-4.467 4.483-10.303 3.356-15.867 2.1-.13-.029-.205-.265-.339-.314-2.994-1.1-7.15-.712-8.485-4.068-1.219-3.266-1.689-6.764-1.376-10.235.579-6.911 1.833-13.768 2.904-20.633.257-1.382.711-2.72 1.347-3.974.274-.577 1.062-.91 1.617-1.354.333.666.988 1.35.949 1.993-.359 5.994-.868 11.978-1.272 17.969-.321 4.756-.555 9.518-.827 14.277l1.406.359c.692-1.33 1.774-2.595 2.009-4.001 1.145-6.852 2.247-13.72 3.012-20.622.785-7.072 1.233-14.185 1.656-21.29.085-1.417-.606-2.88-.939-4.321"></path><path d="m344.116 251.235c-4.33-10.313-8.466-20.713-13.049-30.913-3.697-8.229-7.914-16.226-11.953-24.301-.572-.869-1.232-1.678-1.969-2.413-2.41 4.296-1.85 8.525-1.322 12.712 1.796 14.227 7.296 27.289 13.016 40.239 4.45 10.074 9.298 19.973 13.918 29.973.334.967.566 1.966.693 2.982"></path><path d="m725 325c-.444 3.216-2.043 10.866-2.597 14.062-1.502 8.659-3.253 17.279-4.556 25.967-.448 2.992-.651 6.284 1.576 8.969"></path><path d="m326.799 287.498c-7.992-6.099-16.016-12.158-23.966-18.312-5.056-3.914-10.002-7.97-14.997-11.962"></path><path d="m372.422 290.493c-3.554 3.919-8.427 5.697-12.983 7.993-.847.428-1.634.974-2.449 1.466l.042.762c1.109.279 2.25.406 3.394.377 4.016-.656 7.988-1.579 12.004-2.235 1.225-.053 2.453.043 3.655.287"></path><path d="m329.13 288.829c3.244 2.728 6.487 5.456 9.871 8.302-3.869 2.468-19.736-.174-24.911-3.924 4.767-2.551 9.321-4.914 14.707-5.043"></path><path d="m463.668 416.915c3.233-4.396 3.316-6.691-.383-10.599-2.744-2.9-5.944-5.37-8.941-8.032"></path><path d="m347.113 261.881c2.626 4.775 4.161 10.072 4.493 15.51l-.971.423c-.73-1.208-1.768-2.33-2.133-3.639-1.116-4.005-2.243-7.925-1.906-12.308.258-3.367-1.148-6.861-1.814-10.299"></path><path d="m355.771 286.833c-4.107-.222-8.214-.444-12.321-.666"></path><path d="m339.453 286.168c-3.33.554-6.66 1.109-9.99 1.663"></path><path d="m359.767 289.162c-2.553 2.662-5.106 5.323-7.659 7.985"></path></g></svg>